<?xml version="1.0" encoding="utf-8"?>
<!-- Generator: Adobe Illustrator 23.0.0, SVG Export Plug-In . SVG Version: 6.00 Build 0)  -->
<svg version="1.1" id="Capa_1" xmlns="http://www.w3.org/2000/svg" xmlns:xlink="http://www.w3.org/1999/xlink" x="0px" y="0px"
	 viewBox="0 0 1920 900" style="enable-background:new 0 0 1920 900;" xml:space="preserve">
<style type="text/css">
	.st0{fill:#FDE1E8;}
	.st1{fill:#7C61D4;}
</style>
<path class="st0" d="M-2.8,474.71l0,121.22c0,0,34.71,123.27,230.24,119.07l232.15,32.35c0,0,97.38,84.37,157.13,100.22
	c59.75,15.85,221.38,9.64,257.07-3.64l293.32-64.78c0,0,221.89,52.48,314.51-56.32l240.62-24.3c0,0,175.27-27.58,200.56-123.64
	l0.09-100.16H-2.8z"/>
<path class="st1" d="M-2.8,595.93c0-176.21,0.01-428.2-0.1-604.4c641.93,0.1,1283.86,0.1,1925.79,0
	c-0.11,169.19-0.1,414.15-0.1,583.34c-2.37-0.44-4.65,0.27-6.93,0.67c-32.55,5.81-60.25,21.86-86.49,40.98
	c-24.54,17.88-47.29,38.04-71.43,56.43c-10.56,8.04-21.45,15.64-32.21,23.42c-0.88,0.55-2.32,1.44-3.2,1.99
	c-0.46,0.24-0.93,0.49-1.39,0.73c-1.61,0.86-3.26,1.66-4.83,2.59c-31.12,18.43-64.64,29.12-100.73,32.07
	c-31.73,2.59-63-1.22-94.29-5.55c-13.21-1.83-26.33-4.36-39.66-5.39c-1.46-0.34-2.9-0.77-4.37-1c-29.06-4.39-58.28-7.13-87.63-8.52
	c-31.25-1.48-61.96,1.29-92.12,10.06c-30.71,8.93-60.03,21.27-88.82,34.98c-13.99,6.66-28.08,13.13-41.57,20.8
	c-0.47,0.15-0.97,0.24-1.41,0.46c-32.17,15.87-64.17,32.04-97.16,46.24c-48.76,20.99-99.09,30.2-152.02,23.38
	c-14.23-1.84-28.48-3.53-42.72-5.29c-1.59-0.45-3.15-1.04-4.77-1.34c-31.7-5.89-62.85-13.99-93.67-23.4
	c-43.6-13.31-86.36-29-128.98-45.1c-38.83-14.66-78.14-27.25-119.75-31.15c-22.59-2.12-45-1.78-67.03,4.42
	c-22.95,3.38-45.96,6-69.21,6.26c-46.7,0.51-92.21-5.6-135.31-24.65c-9.43-4.17-18.43-9.28-27.63-13.96
	c-0.86-0.77-1.62-1.68-2.58-2.28c-15.64-9.81-29.5-21.74-41.86-35.42c-8.6-9.51-16.17-19.94-25.83-28.52
	c-30.02-26.68-65.9-40.4-104.73-47.67C34.19,597.69,15.71,596.6-2.8,595.93z"/>
</svg>
